<?xml version="1.0" encoding="UTF-8"?>
<svg xmlns="http://www.w3.org/2000/svg"
     viewBox="0 0 1000 1000"
     version="1.2"
     baseProfile="tiny">

  <desc>MG Corp brand logo</desc>

  <path fill="#000000"
        d="M842.82,24.52l-331.13,207.81c-7.41,3.52-13.6,3.98-21.2,1.18L157.11,24.49l-.35,596.55c-.03,52.14,46,76.73,85.46,98.8l.23-534.86,258.02,161.24,255.89-160.67c1.43,39.37,1.32,71.84.43,107.82l-256.83,160.42-171.19-106.54-.18,321.94,171.18,107.35,171.87-107.47c-.42-38.43.32-70.59-1.95-105.55l-170.08,105.99-86.21-54.63,1.15-107.29,85.45,53.19,257.08-160.21.92,320.58,51.36-32.19c18.57-18.4,33.92-41.81,33.9-70.91l-.42-593.53Z"/>

  <path fill="#000000"
        d="M516.17,873.6c-5.07,3.16-15.95,9.96-21.8,6.32l-250.01-155.65c-3.77,60.03-6.46,103.76,46.06,136.43l167.38,104.13c22.51,14,61.84,14.09,82.45,1.17l179.91-112.75c39.59-24.81,41.04-87.21,36.06-129.39l-240.05,149.74Z"/>

</svg>
